# xmcd CD database file
#
# Track frame offsets:
#	150
#	20327
#	58447
#	93970
#	113570
#	137360
#	155922
#	171427
#	193245
#	211607
#	232125
#	252790
#	273072
#	296407
#	311982
#
# Disc length: 4497 seconds
#
# Revision: 2
# Processed by: cddbd v1.4PL0 Copyright (c) Steve Scherf et al.
# Submitted via: CDex 1.50
#
DISCID=d9118f0f
DTITLE=George Thorogood - Anthology [CD1]
DYEAR=2000
DGENRE=Blues
TTITLE0=Madison Blues
TTITLE1=One Bourbon, One Scotch, One Beer
TTITLE2=Delaware Slide
TTITLE3=Move It On Over
TTITLE4=The Sky Is Crying
TTITLE5=I'm Wanted
TTITLE6=Nobody But Me
TTITLE7=Bad To The Bone
TTITLE8=Willie And The Hand Jive
TTITLE9=I Drink Alone
TTITLE10=Gear Jammer
TTITLE11=Long Gone
TTITLE12=Reelin' And Rockin' (Live)
TTITLE13=Bottom Of The Sea (Live)
TTITLE14=Night Time (Live)
EXTD=YEAR: 2000
EXTT0=
EXTT1=
EXTT2=
EXTT3=
EXTT4=
EXTT5=
EXTT6=
EXTT7=
EXTT8=
EXTT9=
EXTT10=
EXTT11=
EXTT12=
EXTT13=
EXTT14=
PLAYORDER=
